<svg width="23" height="23" viewBox="0 0 23 23" fill="none" xmlns="http://www.w3.org/2000/svg">
<path d="M5.21579 7.47437H0.275726V23H5.21579V7.47437Z" fill="black"/>
<path d="M21.4376 8.89224C20.4036 7.71461 19.025 7.11377 17.3247 7.11377C16.7043 7.11377 16.1299 7.18587 15.6014 7.3541C15.0959 7.52234 14.6593 7.73864 14.2917 8.02704C13.947 8.31544 13.6483 8.57981 13.4416 8.84418C13.2348 9.08451 13.0509 9.34888 12.8671 9.66131V7.45024H7.95004L7.97302 8.19527C7.97302 8.69998 7.996 10.2381 7.996 12.8337C7.996 15.4293 7.996 18.794 7.97302 22.9758H12.8901V14.3238C12.8901 13.7951 12.9361 13.3625 13.0509 13.05C13.2577 12.5213 13.5794 12.0647 13.993 11.7042C14.4066 11.3437 14.9351 11.1754 15.5784 11.1754C16.4286 11.1754 17.0719 11.4879 17.4625 12.1127C17.8761 12.7376 18.0599 13.6028 18.0599 14.6843V22.9758H22.977V14.0835C23 11.8003 22.4945 10.0699 21.4376 8.89224Z" fill="black"/>
<path d="M2.78022 0C1.95305 0 1.28671 0.264368 0.781219 0.76907C0.252747 1.27377 0 1.89864 0 2.66771C0 3.43678 0.252747 4.06165 0.758242 4.59039C1.26374 5.09509 1.90709 5.35946 2.73427 5.35946H2.75724C3.60739 5.35946 4.27373 5.09509 4.77922 4.59039C5.28472 4.08569 5.53746 3.43678 5.53746 2.66771C5.53746 1.89864 5.26174 1.24974 4.77922 0.745037C4.27373 0.264368 3.60739 0 2.78022 0Z" fill="black"/>
</svg>
